<svg width="0" height="0" class="hidden">
  <symbol id="money" xmlns="http://www.w3.org/2000/svg" viewBox="0 0 64 64">
    <polygon points="26 53 30 49 44 49 55 34 51 31 43 39 24 39 18 45 26 53"></polygon>
    <rect height="15.556" transform="translate(-31.205 28.665) rotate(-45)" width="9.899" x="14.05" y="44.222"></rect>
    <rect height="3.536" transform="translate(-32.965 32.915) rotate(-45)" width="9.899" x="18.3" y="54.482"></rect>
    <polygon points="36 43 36 39 38 39 38 45 30 45 30 43 36 43"></polygon>
    <polygon points="16 53 19 50 22 53 16 53"></polygon>
    <circle cx="32" cy="27" r="8"></circle>
    <circle cx="50" cy="17" r="6"></circle>
    <circle cx="15" cy="13" r="4"></circle>
    <path d="M34.14,32.114a3.028,3.028,0,0,0-.2-4.464l-2.593-2.16a1.025,1.025,0,0,1-.069-1.512,1.051,1.051,0,0,1,1.45,0l1.568,1.568,1.414-1.414-1.568-1.569a2.99,2.99,0,0,0-1.139-.7v-2.79a7.281,7.281,0,0,0-2,0v2.789a3,3,0,0,0-1.14.7,3.027,3.027,0,0,0,.2,4.464l2.593,2.161a1.025,1.025,0,0,1,.07,1.511,1.027,1.027,0,0,1-1.451,0l-1.568-1.568-1.414,1.414,1.568,1.569a2.983,2.983,0,0,0,1.139.7v2.113a7.281,7.281,0,0,0,2,0V32.818A3,3,0,0,0,34.14,32.114Z"></path>
    <line x1="32" x2="32" y1="9" y2="16"></line>
    <line x1="28" x2="28" y1="7" y2="14"></line>
    <line x1="36" x2="36" y1="7" y2="14"></line>
    <line x1="15" x2="15" y1="2" y2="6"></line>
    <line x1="19" x2="19" y1="2" y2="8"></line>
    <line x1="11" x2="11" y1="2" y2="4"></line>
    <line x1="46" x2="46" y1="4" y2="9"></line>
    <line x1="50" x2="50" y1="3" y2="8"></line>
    <line x1="54" x2="54" y1="2" y2="5"></line>
    <path d="M55.6,33.2l-4-3a1,1,0,0,0-1.307.093L42.586,38H24a1,1,0,0,0-.707.293L18.5,43.086l-.793-.793a1,1,0,0,0-1.414,0l-7,7a1,1,0,0,0,0,1.414l11,11a1,1,0,0,0,1.414,0l7-7a1,1,0,0,0,0-1.414l-.793-.793,2.5-2.5H44a1,1,0,0,0,.807-.408l11-15A1,1,0,0,0,55.6,33.2ZM21,59.586,11.414,50,17,44.414,26.586,54ZM43.493,48H30a1,1,0,0,0-.707.293L26.5,51.086,19.914,44.5l4.5-4.5H37v4H30v2h8a1,1,0,0,0,1-1V40h4a1,1,0,0,0,.707-.293l7.387-7.387,2.514,1.886Z"></path>
  </symbol>
</svg>